<?xml version="1.0" standalone="no"?>
<!DOCTYPE svg PUBLIC "-//W3C//DTD SVG 20010904//EN"
 "http://www.w3.org/TR/2001/REC-SVG-20010904/DTD/svg10.dtd">
<svg version="1.0" xmlns="http://www.w3.org/2000/svg"
 width="700.000000pt" height="700.000000pt" viewBox="0 0 700.000000 700.000000"
 preserveAspectRatio="xMidYMid meet">
<metadata>
Created by potrace 1.11, written by Peter Selinger 2001-2013
</metadata>
<g transform="translate(0.000000,700.000000) scale(0.100000,-0.100000)"
fill="#000000" stroke="none">
<path d="M135 6981 c-51 -23 -93 -65 -116 -116 -18 -39 -19 -162 -19 -3362 0
-2302 3 -3330 11 -3350 21 -56 61 -102 112 -128 l51 -25 3325 0 c3301 0 3326
1 3370 20 51 24 85 59 112 115 18 39 19 127 16 3375 -2 3158 -3 3337 -20 3367
-25 46 -64 83 -111 104 -40 18 -152 19 -3366 19 -3203 0 -3326 -1 -3365 -19z"/>
</g>
</svg>
